<svg width="80" height="80" viewBox="0 0 80 80" fill="none" xmlns="http://www.w3.org/2000/svg">
<path d="M40 72C48.4869 72 56.6263 68.6286 62.6274 62.6274C68.6286 56.6263 72 48.4869 72 40C72 31.5131 68.6286 23.3737 62.6274 17.3726C56.6263 11.3714 48.4869 8 40 8C31.5131 8 23.3737 11.3714 17.3726 17.3726C11.3714 23.3737 8 31.5131 8 40C8 48.4869 11.3714 56.6263 17.3726 62.6274C23.3737 68.6286 31.5131 72 40 72ZM40 80C17.908 80 0 62.092 0 40C0 17.908 17.908 0 40 0C62.092 0 80 17.908 80 40C80 62.092 62.092 80 40 80Z" fill="#0A7B37"/>
<path d="M31.6364 52.4776L20.6591 41.194L17 44.9552L31.6364 60L63 27.7612L59.3409 24L31.6364 52.4776Z" fill="#0A7B37"/>
</svg>
